<svg width="94" height="28" viewBox="0 0 94 28" fill="none" xmlns="http://www.w3.org/2000/svg">
<path fill-rule="evenodd" clip-rule="evenodd" d="M0 8.95176C0 8.95176 29.771 -1.61611 57.0784 7.74212V4.05248C54.5212 3.11868 31.2583 -4.65286 0 8.95176Z" fill="#F4722A"/>
<path fill-rule="evenodd" clip-rule="evenodd" d="M93.9823 20.0468C93.9823 20.0468 64.2113 30.6172 36.9115 21.259V24.9486C39.4662 25.8824 62.7291 33.6514 93.9873 20.0468" fill="#434343"/>
<path fill-rule="evenodd" clip-rule="evenodd" d="M45.832 11.3385C46.4987 11.3395 47.1508 11.5336 47.7097 11.8974C48.2685 12.2611 48.7101 12.779 48.9811 13.3883C49.1172 13.6742 49.1803 13.9892 49.1648 14.3054C49.1494 14.6216 49.0559 14.9291 48.8926 15.2003C48.4351 15.8579 47.7636 16.3363 46.9927 16.5537C46.2218 16.7711 45.3995 16.714 44.666 16.3922V16.3922C45.4219 16.8422 46.3186 16.9934 47.1802 16.8159C48.0417 16.6385 48.8059 16.1453 49.3226 15.4331C49.1062 16.1005 48.6915 16.6861 48.1339 17.1118C47.5764 17.5375 46.9024 17.7831 46.2017 17.8158C45.5011 17.8485 44.8072 17.6668 44.2124 17.2949C43.6176 16.923 43.1503 16.3786 42.8726 15.7342C42.7315 15.4384 42.6727 15.1099 42.7026 14.7834C42.7324 14.457 42.8497 14.1446 43.0421 13.8793C43.5087 13.2508 44.1744 12.7993 44.9307 12.5984C45.6869 12.3976 46.4888 12.4592 47.2055 12.7734V12.7734C46.4495 12.323 45.5524 12.1719 44.6906 12.3499C43.8289 12.5279 43.0649 13.022 42.5489 13.735C42.7741 13.0401 43.2137 12.4345 43.8045 12.0053C44.3953 11.5761 45.1069 11.3453 45.8371 11.3461L45.832 11.3385ZM45.8573 10.6806C46.6193 10.6816 47.3639 10.9087 47.9969 11.3331C48.6299 11.7575 49.1229 12.3603 49.4135 13.0651C49.704 13.7698 49.7792 14.545 49.6293 15.2925C49.4795 16.04 49.1115 16.7263 48.5718 17.2645C48.032 17.8027 47.3449 18.1686 46.5973 18.3161C45.8497 18.4635 45.0751 18.3858 44.3716 18.0928C43.6682 17.7998 43.0673 17.3046 42.6452 16.6699C42.223 16.0352 41.9985 15.2895 42 14.5271C42 13.5049 42.4059 12.5246 43.1283 11.8018C43.8508 11.079 44.8306 10.673 45.8523 10.673L45.8573 10.6806Z" fill="#F4722A"/>
<path fill-rule="evenodd" clip-rule="evenodd" d="M45.8523 12.8493C46.1845 12.8493 46.5094 12.9479 46.7856 13.1327C47.0619 13.3174 47.2771 13.58 47.4042 13.8872C47.5312 14.1944 47.5643 14.5324 47.4993 14.8584C47.4343 15.1844 47.2741 15.4838 47.039 15.7187C46.8038 15.9536 46.5043 16.1134 46.1784 16.178C45.8524 16.2425 45.5146 16.2089 45.2078 16.0813C44.9009 15.9538 44.6388 15.738 44.4546 15.4613C44.2703 15.1847 44.1722 14.8596 44.1727 14.5271C44.1727 14.3066 44.2162 14.0882 44.3006 13.8845C44.3851 13.6807 44.5088 13.4957 44.6648 13.3398C44.8208 13.184 45.006 13.0605 45.2097 12.9763C45.4135 12.8921 45.6318 12.849 45.8523 12.8493Z" fill="#F4722A"/>
<path fill-rule="evenodd" clip-rule="evenodd" d="M45.8523 13.239C46.1069 13.239 46.3558 13.3146 46.5676 13.4561C46.7793 13.5977 46.9443 13.7988 47.0417 14.0342C47.1392 14.2696 47.1647 14.5286 47.115 14.7784C47.0653 15.0283 46.9427 15.2578 46.7627 15.4379C46.5826 15.6181 46.3532 15.7408 46.1035 15.7905C45.8537 15.8402 45.5948 15.8147 45.3596 15.7172C45.1243 15.6197 44.9233 15.4546 44.7818 15.2428C44.6403 15.0309 44.5648 14.7819 44.5648 14.5271C44.5648 14.1855 44.7005 13.8579 44.9419 13.6163C45.1834 13.3748 45.5108 13.239 45.8523 13.239" fill="#434343"/>
<path fill-rule="evenodd" clip-rule="evenodd" d="M44.972 13.3504C45.044 13.3509 45.1141 13.3727 45.1737 13.413C45.2333 13.4534 45.2796 13.5104 45.3068 13.5771C45.3339 13.6437 45.3408 13.7169 45.3264 13.7874C45.3121 13.8579 45.2772 13.9226 45.2262 13.9733C45.1751 14.0241 45.1102 14.0585 45.0397 14.0724C44.9691 14.0862 44.896 14.0789 44.8296 14.0512C44.7631 14.0235 44.7064 13.9768 44.6665 13.917C44.6266 13.8571 44.6053 13.7867 44.6053 13.7148C44.606 13.6179 44.6449 13.5252 44.7136 13.457C44.7823 13.3887 44.8752 13.3504 44.972 13.3504" fill="white"/>
<path d="M13.598 18.1325C12.8133 18.1325 12.102 17.9639 11.464 17.6265C10.8333 17.2819 10.3347 16.8089 9.968 16.2075C9.60867 15.5989 9.429 14.9132 9.429 14.1505C9.429 13.3879 9.60867 12.7059 9.968 12.1045C10.3347 11.4959 10.8333 11.0229 11.464 10.6855C12.102 10.3409 12.817 10.1685 13.609 10.1685C14.2763 10.1685 14.8777 10.2859 15.413 10.5205C15.9557 10.7552 16.4103 11.0925 16.777 11.5325L15.633 12.5885C15.1123 11.9872 14.467 11.6865 13.697 11.6865C13.2203 11.6865 12.795 11.7929 12.421 12.0055C12.047 12.2109 11.7537 12.5005 11.541 12.8745C11.3357 13.2485 11.233 13.6739 11.233 14.1505C11.233 14.6272 11.3357 15.0525 11.541 15.4265C11.7537 15.8005 12.047 16.0939 12.421 16.3065C12.795 16.5119 13.2203 16.6145 13.697 16.6145C14.467 16.6145 15.1123 16.3102 15.633 15.7015L16.777 16.7575C16.4103 17.2049 15.9557 17.5459 15.413 17.7805C14.8703 18.0152 14.2653 18.1325 13.598 18.1325ZM25.0424 10.3005V18.0005H23.2604V14.8435H19.7624V18.0005H17.9804V10.3005H19.7624V13.3365H23.2604V10.3005H25.0424ZM26.8642 10.3005H28.6462V18.0005H26.8642V10.3005ZM34.1585 18.1325C33.3739 18.1325 32.6625 17.9639 32.0245 17.6265C31.3939 17.2819 30.8952 16.8089 30.5285 16.2075C30.1692 15.5989 29.9895 14.9132 29.9895 14.1505C29.9895 13.3879 30.1692 12.7059 30.5285 12.1045C30.8952 11.4959 31.3939 11.0229 32.0245 10.6855C32.6625 10.3409 33.3775 10.1685 34.1695 10.1685C34.8369 10.1685 35.4382 10.2859 35.9735 10.5205C36.5162 10.7552 36.9709 11.0925 37.3375 11.5325L36.1935 12.5885C35.6729 11.9872 35.0275 11.6865 34.2575 11.6865C33.7809 11.6865 33.3555 11.7929 32.9815 12.0055C32.6075 12.2109 32.3142 12.5005 32.1015 12.8745C31.8962 13.2485 31.7935 13.6739 31.7935 14.1505C31.7935 14.6272 31.8962 15.0525 32.1015 15.4265C32.3142 15.8005 32.6075 16.0939 32.9815 16.3065C33.3555 16.5119 33.7809 16.6145 34.2575 16.6145C35.0275 16.6145 35.6729 16.3102 36.1935 15.7015L37.3375 16.7575C36.9709 17.2049 36.5162 17.5459 35.9735 17.7805C35.4309 18.0152 34.8259 18.1325 34.1585 18.1325Z" fill="#434343"/>
<path d="M60.316 10.3005L56.983 18.0005H55.223L51.901 10.3005H53.826L56.169 15.8005L58.545 10.3005H60.316ZM60.9589 10.3005H62.7409V18.0005H60.9589V10.3005ZM67.0983 18.1325C66.4896 18.1325 65.8993 18.0519 65.3273 17.8905C64.7626 17.7219 64.3079 17.5055 63.9633 17.2415L64.5683 15.8995C64.8983 16.1415 65.2906 16.3359 65.7453 16.4825C66.1999 16.6292 66.6546 16.7025 67.1093 16.7025C67.6153 16.7025 67.9893 16.6292 68.2313 16.4825C68.4733 16.3285 68.5943 16.1269 68.5943 15.8775C68.5943 15.6942 68.5209 15.5439 68.3743 15.4265C68.2349 15.3019 68.0516 15.2029 67.8243 15.1295C67.6043 15.0562 67.3036 14.9755 66.9223 14.8875C66.3356 14.7482 65.8553 14.6089 65.4813 14.4695C65.1073 14.3302 64.7846 14.1065 64.5133 13.7985C64.2493 13.4905 64.1173 13.0799 64.1173 12.5665C64.1173 12.1192 64.2383 11.7159 64.4803 11.3565C64.7223 10.9899 65.0853 10.7002 65.5693 10.4875C66.0606 10.2749 66.6583 10.1685 67.3623 10.1685C67.8536 10.1685 68.3339 10.2272 68.8033 10.3445C69.2726 10.4619 69.6833 10.6305 70.0353 10.8505L69.4853 12.2035C68.7739 11.8002 68.0626 11.5985 67.3513 11.5985C66.8526 11.5985 66.4823 11.6792 66.2403 11.8405C66.0056 12.0019 65.8883 12.2145 65.8883 12.4785C65.8883 12.7425 66.0239 12.9405 66.2953 13.0725C66.5739 13.1972 66.9956 13.3219 67.5603 13.4465C68.1469 13.5859 68.6273 13.7252 69.0013 13.8645C69.3753 14.0039 69.6943 14.2239 69.9583 14.5245C70.2296 14.8252 70.3653 15.2322 70.3653 15.7455C70.3653 16.1855 70.2406 16.5889 69.9913 16.9555C69.7493 17.3149 69.3826 17.6009 68.8913 17.8135C68.3999 18.0262 67.8023 18.1325 67.0983 18.1325ZM71.5829 10.3005H73.3649V18.0005H71.5829V10.3005ZM78.9213 18.1325C78.122 18.1325 77.3996 17.9602 76.7543 17.6155C76.1163 17.2709 75.614 16.7979 75.2473 16.1965C74.888 15.5879 74.7083 14.9059 74.7083 14.1505C74.7083 13.3952 74.888 12.7169 75.2473 12.1155C75.614 11.5069 76.1163 11.0302 76.7543 10.6855C77.3996 10.3409 78.122 10.1685 78.9213 10.1685C79.7206 10.1685 80.4393 10.3409 81.0773 10.6855C81.7153 11.0302 82.2176 11.5069 82.5843 12.1155C82.951 12.7169 83.1343 13.3952 83.1343 14.1505C83.1343 14.9059 82.951 15.5879 82.5843 16.1965C82.2176 16.7979 81.7153 17.2709 81.0773 17.6155C80.4393 17.9602 79.7206 18.1325 78.9213 18.1325ZM78.9213 16.6145C79.376 16.6145 79.7866 16.5119 80.1533 16.3065C80.52 16.0939 80.806 15.8005 81.0113 15.4265C81.224 15.0525 81.3303 14.6272 81.3303 14.1505C81.3303 13.6739 81.224 13.2485 81.0113 12.8745C80.806 12.5005 80.52 12.2109 80.1533 12.0055C79.7866 11.7929 79.376 11.6865 78.9213 11.6865C78.4666 11.6865 78.056 11.7929 77.6893 12.0055C77.3226 12.2109 77.033 12.5005 76.8203 12.8745C76.615 13.2485 76.5123 13.6739 76.5123 14.1505C76.5123 14.6272 76.615 15.0525 76.8203 15.4265C77.033 15.8005 77.3226 16.0939 77.6893 16.3065C78.056 16.5119 78.4666 16.6145 78.9213 16.6145ZM91.5355 10.3005V18.0005H90.0725L86.2335 13.3255V18.0005H84.4735V10.3005H85.9475L89.7755 14.9755V10.3005H91.5355Z" fill="#F4722A"/>
</svg>
